# xmcd CD database file
#
# Track frame offsets:
#	150
#	15809
#	71453
#	125621
#	166497
#
# Disc length: 3622 seconds
#
# Revision: 0
# Processed by: cddbd v1.5.1PL2 Copyright (c) Steve Scherf et al.
# Submitted via: CDex 1.50
#
DISCID=350e2405
DTITLE=Chick Corea - Trio in 2004
DYEAR=2004
DGENRE=Jazz
TTITLE0=Opening - Band Introduction
TTITLE1=It Could Happen to You
TTITLE2=Eternal Child
TTITLE3=Dignity
TTITLE4=My Fiesta - Malaguena
EXTD=YEAR: 2004
EXTT0=
EXTT1=
EXTT2=
EXTT3=
EXTT4=
PLAYORDER=
